<?xml version="1.0" standalone="no"?><!DOCTYPE svg PUBLIC "-//W3C//DTD SVG 1.1//EN" "http://www.w3.org/Graphics/SVG/1.1/DTD/svg11.dtd"><svg t="1746202859373" class="icon" viewBox="0 0 1024 1024" version="1.1" xmlns="http://www.w3.org/2000/svg" p-id="12295" data-darkreader-inline-fill="" xmlns:xlink="http://www.w3.org/1999/xlink" width="200" height="200"><path d="M876.1 106.2H149.9c-48.5 0-87.9 39.4-87.9 87.9v635c0 48.5 39.4 87.9 87.9 87.9h464.8v-72h-74.5V678.8h74.5v-54.6h-74.5V453.9H892v122h72V194.1c0-48.5-39.4-87.9-87.9-87.9zM485.7 845H149.9c-8.6 0-15.9-7.3-15.9-15.9V678.8h351.7V845z m0-220.7H134V453.9h351.7v170.4z m0-225H134V248h351.7v151.3z m406.3 0H540.3V248H892v151.3z" p-id="12296"></path><path d="M820.2 623.9h-50.6v110.6H659v50.6h110.6v110.6h50.6V785.1h110.7v-50.6H820.2z" p-id="12297"></path></svg>