<?xml version="1.0" standalone="no"?><!DOCTYPE svg PUBLIC "-//W3C//DTD SVG 1.1//EN" "http://www.w3.org/Graphics/SVG/1.1/DTD/svg11.dtd"><svg t="1746548214881" class="icon" viewBox="0 0 1024 1024" version="1.1" xmlns="http://www.w3.org/2000/svg" p-id="5293" data-darkreader-inline-fill="" xmlns:xlink="http://www.w3.org/1999/xlink" width="200" height="200"><path d="M277.333333 234.666667m32 0l405.333334 0q32 0 32 32l0 0q0 32-32 32l-405.333334 0q-32 0-32-32l0 0q0-32 32-32Z" fill="#707070" p-id="5294" data-darkreader-inline-fill="" style="--darkreader-inline-fill: var(--darkreader-background-707070, #545b5f);"></path><path d="M277.333333 384m32 0l405.333334 0q32 0 32 32l0 0q0 32-32 32l-405.333334 0q-32 0-32-32l0 0q0-32 32-32Z" fill="#707070" p-id="5295" data-darkreader-inline-fill="" style="--darkreader-inline-fill: var(--darkreader-background-707070, #545b5f);"></path><path d="M277.333333 533.333333m32 0l106.666667 0q32 0 32 32l0 0q0 32-32 32l-106.666667 0q-32 0-32-32l0 0q0-32 32-32Z" fill="#707070" p-id="5296" data-darkreader-inline-fill="" style="--darkreader-inline-fill: var(--darkreader-background-707070, #545b5f);"></path><path d="M772.266667 96a117.333333 117.333333 0 0 1 117.248 112.618667L889.6 213.333333v279.466667a32 32 0 0 1-63.850667 3.072L825.6 492.8V213.333333a53.333333 53.333333 0 0 0-49.834667-53.226666L772.266667 160H251.733333a53.333333 53.333333 0 0 0-53.226666 49.834667L198.4 213.333333v597.333334a53.333333 53.333333 0 0 0 49.834667 53.226666l3.498666 0.106667h298.666667a32 32 0 0 1 3.072 63.850667l-3.072 0.149333h-298.666667a117.333333 117.333333 0 0 1-117.248-112.618667L134.4 810.666667V213.333333a117.333333 117.333333 0 0 1 112.618667-117.248L251.733333 96h520.533334z" fill="#707070" p-id="5297" data-darkreader-inline-fill="" style="--darkreader-inline-fill: var(--darkreader-background-707070, #545b5f);"></path><path d="M704 608a32 32 0 0 1 31.850667 28.928L736 640v170.666667a53.333333 53.333333 0 0 0 49.834667 53.226666L789.333333 864h64a32 32 0 0 1 3.072 63.850667L853.333333 928h-64a117.333333 117.333333 0 0 1-117.248-112.618667L672 810.666667v-170.666667a32 32 0 0 1 32-32z" fill="#707070" p-id="5298" data-darkreader-inline-fill="" style="--darkreader-inline-fill: var(--darkreader-background-707070, #545b5f);"></path><path d="M817.898667 689.130667a32 32 0 0 1-42.965334 2.090666l-2.282666-2.090666-67.882667-67.882667-67.882667 67.882667a32 32 0 0 1-42.986666 2.090666l-2.282667-2.090666a32 32 0 0 1-2.069333-42.965334l2.069333-2.282666 90.517333-90.517334a32 32 0 0 1 42.965334-2.069333l2.282666 2.069333 90.517334 90.517334a32 32 0 0 1 0 45.248z" fill="#707070" p-id="5299" data-darkreader-inline-fill="" style="--darkreader-inline-fill: var(--darkreader-background-707070, #545b5f);"></path></svg>